<svg width="57" height="22" viewBox="0 0 57 22" fill="none" xmlns="http://www.w3.org/2000/svg">
<path d="M24.2773 21.224H20V1.41064H24.2773V12.5591L29.272 6.43298H34.184L28.4166 13.4698L34.9566 21.224H29.4928L24.2773 14.4356V21.224Z" fill="#204447"/>
<path d="M44.7583 21.224V19.5959C44.2616 20.2398 43.6545 20.7181 42.9371 21.0309C42.238 21.3436 41.3917 21.5 40.3983 21.5C38.853 21.5 37.6112 21.0769 36.6729 20.2306C35.7347 19.3844 35.2656 18.2714 35.2656 16.8916C35.2656 15.4382 35.8359 14.3344 36.9765 13.5802C38.1171 12.8259 39.7544 12.4488 41.8884 12.4488C42.2932 12.4488 42.6795 12.4671 43.0474 12.5039C43.4338 12.5223 43.8109 12.5591 44.1788 12.6143V11.8141C44.1788 11.0782 43.9765 10.5079 43.5717 10.1032C43.1854 9.69842 42.6243 9.49606 41.8884 9.49606C41.1526 9.49606 40.5639 9.69842 40.1223 10.1032C39.6992 10.5079 39.4509 11.0782 39.3773 11.8141H35.5415C35.6151 10.6551 35.9279 9.65243 36.4798 8.80618C37.0317 7.95992 37.7767 7.30683 38.715 6.84691C39.6532 6.38699 40.7202 6.15703 41.916 6.15703C43.9029 6.15703 45.4482 6.67214 46.552 7.70237C47.6558 8.73259 48.2078 10.1675 48.2078 12.0072V21.224H44.7583ZM39.2945 16.7812C39.2945 17.3147 39.4785 17.747 39.8464 18.0782C40.2143 18.3909 40.7202 18.5473 41.3641 18.5473C42.2472 18.5473 42.9371 18.3357 43.4338 17.9126C43.9305 17.4895 44.1788 16.91 44.1788 16.1741V15.1807C43.7925 15.1071 43.4338 15.0611 43.1026 15.0427C42.7899 15.0059 42.4679 14.9875 42.1368 14.9875C41.217 14.9875 40.5087 15.1347 40.012 15.429C39.5336 15.7234 39.2945 16.1741 39.2945 16.7812Z" fill="#204447"/>
<path d="M55.7326 21.224H51.4554V6.43298H55.7326V21.224ZM56.3673 2.98357C56.3673 3.70105 56.1006 4.29895 55.5671 4.77727C55.052 5.23719 54.3805 5.46715 53.5526 5.46715C52.7248 5.46715 52.0533 5.23719 51.5382 4.77727C51.023 4.29895 50.7655 3.70105 50.7655 2.98357C50.7655 2.2661 51.023 1.6774 51.5382 1.21748C52.0533 0.739159 52.7248 0.5 53.5526 0.5C54.3805 0.5 55.052 0.739159 55.5671 1.21748C56.1006 1.6774 56.3673 2.2661 56.3673 2.98357Z" fill="#204447"/>
<path d="M17 21L2 21L3.49691e-07 17L15 17L17 21Z" fill="#204447"/>
</svg>
